<svg width="131" height="113" viewBox="0 0 131 113" fill="none" xmlns="http://www.w3.org/2000/svg">
<g opacity="0.3">
<mask id="mask0_63_23" style="mask-type:alpha" maskUnits="userSpaceOnUse" x="0" y="0" width="11" height="11">
<path d="M5.20529 10.2436C8.0801 10.2436 10.4106 7.95047 10.4106 5.12178C10.4106 2.29309 8.0801 0 5.20529 0C2.33048 0 0 2.29309 0 5.12178C0 7.95047 2.33048 10.2436 5.20529 10.2436Z" fill="url(#paint0_linear_63_23)"/>
</mask>
<g mask="url(#mask0_63_23)">
<path d="M5.20529 10.2436C8.0801 10.2436 10.4106 7.95047 10.4106 5.12178C10.4106 2.29309 8.0801 0 5.20529 0C2.33048 0 0 2.29309 0 5.12178C0 7.95047 2.33048 10.2436 5.20529 10.2436Z" fill="url(#paint1_linear_63_23)"/>
</g>
<mask id="mask1_63_23" style="mask-type:alpha" maskUnits="userSpaceOnUse" x="30" y="0" width="11" height="11">
<path d="M35.3526 10.2436C38.2274 10.2436 40.5579 7.95047 40.5579 5.12178C40.5579 2.29309 38.2274 0 35.3526 0C32.4778 0 30.1473 2.29309 30.1473 5.12178C30.1473 7.95047 32.4778 10.2436 35.3526 10.2436Z" fill="url(#paint2_linear_63_23)"/>
</mask>
<g mask="url(#mask1_63_23)">
<path d="M35.3526 10.2436C38.2274 10.2436 40.5579 7.95047 40.5579 5.12178C40.5579 2.29309 38.2274 0 35.3526 0C32.4778 0 30.1473 2.29309 30.1473 5.12178C30.1473 7.95047 32.4778 10.2436 35.3526 10.2436Z" fill="url(#paint3_linear_63_23)"/>
</g>
<mask id="mask2_63_23" style="mask-type:alpha" maskUnits="userSpaceOnUse" x="60" y="0" width="11" height="11">
<path d="M65.5 10.2436C68.3748 10.2436 70.7053 7.95047 70.7053 5.12178C70.7053 2.29309 68.3748 0 65.5 0C62.6252 0 60.2947 2.29309 60.2947 5.12178C60.2947 7.95047 62.6252 10.2436 65.5 10.2436Z" fill="url(#paint4_linear_63_23)"/>
</mask>
<g mask="url(#mask2_63_23)">
<path d="M65.5 10.2436C68.3748 10.2436 70.7053 7.95047 70.7053 5.12178C70.7053 2.29309 68.3748 0 65.5 0C62.6252 0 60.2947 2.29309 60.2947 5.12178C60.2947 7.95047 62.6252 10.2436 65.5 10.2436Z" fill="url(#paint5_linear_63_23)"/>
</g>
<mask id="mask3_63_23" style="mask-type:alpha" maskUnits="userSpaceOnUse" x="90" y="0" width="11" height="11">
<path d="M95.6473 10.2436C98.5221 10.2436 100.853 7.95047 100.853 5.12178C100.853 2.29309 98.5221 0 95.6473 0C92.7725 0 90.442 2.29309 90.442 5.12178C90.442 7.95047 92.7725 10.2436 95.6473 10.2436Z" fill="url(#paint6_linear_63_23)"/>
</mask>
<g mask="url(#mask3_63_23)">
<path d="M95.6473 10.2436C98.5221 10.2436 100.853 7.95047 100.853 5.12178C100.853 2.29309 98.5221 0 95.6473 0C92.7725 0 90.442 2.29309 90.442 5.12178C90.442 7.95047 92.7725 10.2436 95.6473 10.2436Z" fill="url(#paint7_linear_63_23)"/>
</g>
<mask id="mask4_63_23" style="mask-type:alpha" maskUnits="userSpaceOnUse" x="120" y="0" width="11" height="11">
<path d="M125.795 10.2436C128.67 10.2436 131 7.95047 131 5.12178C131 2.29309 128.67 0 125.795 0C122.92 0 120.589 2.29309 120.589 5.12178C120.589 7.95047 122.92 10.2436 125.795 10.2436Z" fill="url(#paint8_linear_63_23)"/>
</mask>
<g mask="url(#mask4_63_23)">
<path d="M125.795 10.2436C128.67 10.2436 131 7.95047 131 5.12178C131 2.29309 128.67 0 125.795 0C122.92 0 120.589 2.29309 120.589 5.12178C120.589 7.95047 122.92 10.2436 125.795 10.2436Z" fill="url(#paint9_linear_63_23)"/>
</g>
<mask id="mask5_63_23" style="mask-type:alpha" maskUnits="userSpaceOnUse" x="0" y="25" width="11" height="11">
<path d="M5.20529 35.9591C8.0801 35.9591 10.4106 33.666 10.4106 30.8373C10.4106 28.0087 8.0801 25.7156 5.20529 25.7156C2.33048 25.7156 0 28.0087 0 30.8373C0 33.666 2.33048 35.9591 5.20529 35.9591Z" fill="url(#paint10_linear_63_23)"/>
</mask>
<g mask="url(#mask5_63_23)">
<path d="M5.20529 35.9591C8.0801 35.9591 10.4106 33.666 10.4106 30.8373C10.4106 28.0087 8.0801 25.7156 5.20529 25.7156C2.33048 25.7156 0 28.0087 0 30.8373C0 33.666 2.33048 35.9591 5.20529 35.9591Z" fill="url(#paint11_linear_63_23)"/>
</g>
<mask id="mask6_63_23" style="mask-type:alpha" maskUnits="userSpaceOnUse" x="30" y="25" width="11" height="11">
<path d="M35.3526 35.9591C38.2274 35.9591 40.5579 33.666 40.5579 30.8373C40.5579 28.0087 38.2274 25.7156 35.3526 25.7156C32.4778 25.7156 30.1473 28.0087 30.1473 30.8373C30.1473 33.666 32.4778 35.9591 35.3526 35.9591Z" fill="url(#paint12_linear_63_23)"/>
</mask>
<g mask="url(#mask6_63_23)">
<path d="M35.3526 35.9591C38.2274 35.9591 40.5579 33.666 40.5579 30.8373C40.5579 28.0087 38.2274 25.7156 35.3526 25.7156C32.4778 25.7156 30.1473 28.0087 30.1473 30.8373C30.1473 33.666 32.4778 35.9591 35.3526 35.9591Z" fill="url(#paint13_linear_63_23)"/>
</g>
<mask id="mask7_63_23" style="mask-type:alpha" maskUnits="userSpaceOnUse" x="60" y="25" width="11" height="11">
<path d="M65.5 35.9591C68.3748 35.9591 70.7053 33.666 70.7053 30.8373C70.7053 28.0087 68.3748 25.7156 65.5 25.7156C62.6252 25.7156 60.2947 28.0087 60.2947 30.8373C60.2947 33.666 62.6252 35.9591 65.5 35.9591Z" fill="url(#paint14_linear_63_23)"/>
</mask>
<g mask="url(#mask7_63_23)">
<path d="M65.5 35.9591C68.3748 35.9591 70.7053 33.666 70.7053 30.8373C70.7053 28.0087 68.3748 25.7156 65.5 25.7156C62.6252 25.7156 60.2947 28.0087 60.2947 30.8373C60.2947 33.666 62.6252 35.9591 65.5 35.9591Z" fill="url(#paint15_linear_63_23)"/>
</g>
<mask id="mask8_63_23" style="mask-type:alpha" maskUnits="userSpaceOnUse" x="90" y="25" width="11" height="11">
<path d="M95.6473 35.9591C98.5221 35.9591 100.853 33.666 100.853 30.8373C100.853 28.0087 98.5221 25.7156 95.6473 25.7156C92.7725 25.7156 90.442 28.0087 90.442 30.8373C90.442 33.666 92.7725 35.9591 95.6473 35.9591Z" fill="url(#paint16_linear_63_23)"/>
</mask>
<g mask="url(#mask8_63_23)">
<path d="M95.6473 35.9591C98.5221 35.9591 100.853 33.666 100.853 30.8373C100.853 28.0087 98.5221 25.7156 95.6473 25.7156C92.7725 25.7156 90.442 28.0087 90.442 30.8373C90.442 33.666 92.7725 35.9591 95.6473 35.9591Z" fill="url(#paint17_linear_63_23)"/>
</g>
<mask id="mask9_63_23" style="mask-type:alpha" maskUnits="userSpaceOnUse" x="120" y="25" width="11" height="11">
<path d="M125.795 35.9591C128.67 35.9591 131 33.666 131 30.8373C131 28.0087 128.67 25.7156 125.795 25.7156C122.92 25.7156 120.589 28.0087 120.589 30.8373C120.589 33.666 122.92 35.9591 125.795 35.9591Z" fill="url(#paint18_linear_63_23)"/>
</mask>
<g mask="url(#mask9_63_23)">
<path d="M125.795 35.9591C128.67 35.9591 131 33.666 131 30.8373C131 28.0087 128.67 25.7156 125.795 25.7156C122.92 25.7156 120.589 28.0087 120.589 30.8373C120.589 33.666 122.92 35.9591 125.795 35.9591Z" fill="url(#paint19_linear_63_23)"/>
</g>
<mask id="mask10_63_23" style="mask-type:alpha" maskUnits="userSpaceOnUse" x="0" y="51" width="11" height="11">
<path d="M5.20529 61.6213C8.0801 61.6213 10.4106 59.3282 10.4106 56.4995C10.4106 53.6708 8.0801 51.3777 5.20529 51.3777C2.33048 51.3777 0 53.6708 0 56.4995C0 59.3282 2.33048 61.6213 5.20529 61.6213Z" fill="url(#paint20_linear_63_23)"/>
</mask>
<g mask="url(#mask10_63_23)">
<path d="M5.20529 61.6213C8.0801 61.6213 10.4106 59.3282 10.4106 56.4995C10.4106 53.6708 8.0801 51.3777 5.20529 51.3777C2.33048 51.3777 0 53.6708 0 56.4995C0 59.3282 2.33048 61.6213 5.20529 61.6213Z" fill="url(#paint21_linear_63_23)"/>
</g>
<mask id="mask11_63_23" style="mask-type:alpha" maskUnits="userSpaceOnUse" x="30" y="51" width="11" height="11">
<path d="M35.3526 61.6213C38.2274 61.6213 40.5579 59.3282 40.5579 56.4995C40.5579 53.6708 38.2274 51.3777 35.3526 51.3777C32.4778 51.3777 30.1473 53.6708 30.1473 56.4995C30.1473 59.3282 32.4778 61.6213 35.3526 61.6213Z" fill="url(#paint22_linear_63_23)"/>
</mask>
<g mask="url(#mask11_63_23)">
<path d="M35.3526 61.6213C38.2274 61.6213 40.5579 59.3282 40.5579 56.4995C40.5579 53.6708 38.2274 51.3777 35.3526 51.3777C32.4778 51.3777 30.1473 53.6708 30.1473 56.4995C30.1473 59.3282 32.4778 61.6213 35.3526 61.6213Z" fill="url(#paint23_linear_63_23)"/>
</g>
<mask id="mask12_63_23" style="mask-type:alpha" maskUnits="userSpaceOnUse" x="60" y="51" width="11" height="11">
<path d="M65.5 61.6213C68.3748 61.6213 70.7053 59.3282 70.7053 56.4995C70.7053 53.6708 68.3748 51.3777 65.5 51.3777C62.6252 51.3777 60.2947 53.6708 60.2947 56.4995C60.2947 59.3282 62.6252 61.6213 65.5 61.6213Z" fill="url(#paint24_linear_63_23)"/>
</mask>
<g mask="url(#mask12_63_23)">
<path d="M65.5 61.6213C68.3748 61.6213 70.7053 59.3282 70.7053 56.4995C70.7053 53.6708 68.3748 51.3777 65.5 51.3777C62.6252 51.3777 60.2947 53.6708 60.2947 56.4995C60.2947 59.3282 62.6252 61.6213 65.5 61.6213Z" fill="url(#paint25_linear_63_23)"/>
</g>
<mask id="mask13_63_23" style="mask-type:alpha" maskUnits="userSpaceOnUse" x="90" y="51" width="11" height="11">
<path d="M95.6473 61.6213C98.5221 61.6213 100.853 59.3282 100.853 56.4995C100.853 53.6708 98.5221 51.3777 95.6473 51.3777C92.7725 51.3777 90.442 53.6708 90.442 56.4995C90.442 59.3282 92.7725 61.6213 95.6473 61.6213Z" fill="url(#paint26_linear_63_23)"/>
</mask>
<g mask="url(#mask13_63_23)">
<path d="M95.6473 61.6213C98.5221 61.6213 100.853 59.3282 100.853 56.4995C100.853 53.6708 98.5221 51.3777 95.6473 51.3777C92.7725 51.3777 90.442 53.6708 90.442 56.4995C90.442 59.3282 92.7725 61.6213 95.6473 61.6213Z" fill="url(#paint27_linear_63_23)"/>
</g>
<mask id="mask14_63_23" style="mask-type:alpha" maskUnits="userSpaceOnUse" x="120" y="51" width="11" height="11">
<path d="M125.795 61.6213C128.67 61.6213 131 59.3282 131 56.4995C131 53.6708 128.67 51.3777 125.795 51.3777C122.92 51.3777 120.589 53.6708 120.589 56.4995C120.589 59.3282 122.92 61.6213 125.795 61.6213Z" fill="url(#paint28_linear_63_23)"/>
</mask>
<g mask="url(#mask14_63_23)">
<path d="M125.795 61.6213C128.67 61.6213 131 59.3282 131 56.4995C131 53.6708 128.67 51.3777 125.795 51.3777C122.92 51.3777 120.589 53.6708 120.589 56.4995C120.589 59.3282 122.92 61.6213 125.795 61.6213Z" fill="url(#paint29_linear_63_23)"/>
</g>
</g>
<defs>
<linearGradient id="paint0_linear_63_23" x1="54.7531" y1="128.853" x2="-14.7326" y2="-50.4091" gradientUnits="userSpaceOnUse">
<stop/>
<stop offset="1" stop-color="white"/>
</linearGradient>
<linearGradient id="paint1_linear_63_23" x1="54.7531" y1="128.853" x2="-14.7326" y2="-50.4091" gradientUnits="userSpaceOnUse">
<stop stop-color="#97C3F9"/>
<stop offset="1" stop-color="#93C1F9"/>
</linearGradient>
<linearGradient id="paint2_linear_63_23" x1="80.8419" y1="118.741" x2="11.3563" y2="-60.5214" gradientUnits="userSpaceOnUse">
<stop/>
<stop offset="1" stop-color="white"/>
</linearGradient>
<linearGradient id="paint3_linear_63_23" x1="80.8419" y1="118.741" x2="11.3563" y2="-60.5214" gradientUnits="userSpaceOnUse">
<stop stop-color="#97C3F9"/>
<stop offset="1" stop-color="#93C1F9"/>
</linearGradient>
<linearGradient id="paint4_linear_63_23" x1="106.931" y1="108.628" x2="37.445" y2="-70.6337" gradientUnits="userSpaceOnUse">
<stop/>
<stop offset="1" stop-color="white"/>
</linearGradient>
<linearGradient id="paint5_linear_63_23" x1="106.931" y1="108.628" x2="37.445" y2="-70.6337" gradientUnits="userSpaceOnUse">
<stop stop-color="#97C3F9"/>
<stop offset="1" stop-color="#93C1F9"/>
</linearGradient>
<linearGradient id="paint6_linear_63_23" x1="133.019" y1="98.5156" x2="63.5334" y2="-80.7465" gradientUnits="userSpaceOnUse">
<stop/>
<stop offset="1" stop-color="white"/>
</linearGradient>
<linearGradient id="paint7_linear_63_23" x1="133.019" y1="98.5156" x2="63.5334" y2="-80.7465" gradientUnits="userSpaceOnUse">
<stop stop-color="#97C3F9"/>
<stop offset="1" stop-color="#93C1F9"/>
</linearGradient>
<linearGradient id="paint8_linear_63_23" x1="159.108" y1="88.4031" x2="89.6221" y2="-90.859" gradientUnits="userSpaceOnUse">
<stop/>
<stop offset="1" stop-color="white"/>
</linearGradient>
<linearGradient id="paint9_linear_63_23" x1="159.108" y1="88.4031" x2="89.6221" y2="-90.859" gradientUnits="userSpaceOnUse">
<stop stop-color="#97C3F9"/>
<stop offset="1" stop-color="#93C1F9"/>
</linearGradient>
<linearGradient id="paint10_linear_63_23" x1="45.8505" y1="132.303" x2="-23.6341" y2="-46.9575" gradientUnits="userSpaceOnUse">
<stop/>
<stop offset="1" stop-color="white"/>
</linearGradient>
<linearGradient id="paint11_linear_63_23" x1="45.8505" y1="132.303" x2="-23.6341" y2="-46.9575" gradientUnits="userSpaceOnUse">
<stop stop-color="#97C3F9"/>
<stop offset="1" stop-color="#93C1F9"/>
</linearGradient>
<linearGradient id="paint12_linear_63_23" x1="71.939" y1="122.19" x2="2.45455" y2="-57.0704" gradientUnits="userSpaceOnUse">
<stop/>
<stop offset="1" stop-color="white"/>
</linearGradient>
<linearGradient id="paint13_linear_63_23" x1="71.939" y1="122.19" x2="2.45455" y2="-57.0704" gradientUnits="userSpaceOnUse">
<stop stop-color="#97C3F9"/>
<stop offset="1" stop-color="#93C1F9"/>
</linearGradient>
<linearGradient id="paint14_linear_63_23" x1="98.0276" y1="112.078" x2="28.5432" y2="-67.1827" gradientUnits="userSpaceOnUse">
<stop/>
<stop offset="1" stop-color="white"/>
</linearGradient>
<linearGradient id="paint15_linear_63_23" x1="98.0276" y1="112.078" x2="28.5432" y2="-67.1827" gradientUnits="userSpaceOnUse">
<stop stop-color="#97C3F9"/>
<stop offset="1" stop-color="#93C1F9"/>
</linearGradient>
<linearGradient id="paint16_linear_63_23" x1="124.116" y1="101.966" x2="54.6317" y2="-77.2952" gradientUnits="userSpaceOnUse">
<stop/>
<stop offset="1" stop-color="white"/>
</linearGradient>
<linearGradient id="paint17_linear_63_23" x1="124.116" y1="101.966" x2="54.6317" y2="-77.2952" gradientUnits="userSpaceOnUse">
<stop stop-color="#97C3F9"/>
<stop offset="1" stop-color="#93C1F9"/>
</linearGradient>
<linearGradient id="paint18_linear_63_23" x1="150.205" y1="91.8533" x2="80.7204" y2="-87.4075" gradientUnits="userSpaceOnUse">
<stop/>
<stop offset="1" stop-color="white"/>
</linearGradient>
<linearGradient id="paint19_linear_63_23" x1="150.205" y1="91.8533" x2="80.7204" y2="-87.4075" gradientUnits="userSpaceOnUse">
<stop stop-color="#97C3F9"/>
<stop offset="1" stop-color="#93C1F9"/>
</linearGradient>
<linearGradient id="paint20_linear_63_23" x1="36.9474" y1="135.755" x2="-32.5383" y2="-43.5075" gradientUnits="userSpaceOnUse">
<stop/>
<stop offset="1" stop-color="white"/>
</linearGradient>
<linearGradient id="paint21_linear_63_23" x1="36.9474" y1="135.755" x2="-32.5383" y2="-43.5075" gradientUnits="userSpaceOnUse">
<stop stop-color="#97C3F9"/>
<stop offset="1" stop-color="#93C1F9"/>
</linearGradient>
<linearGradient id="paint22_linear_63_23" x1="63.0361" y1="125.642" x2="-6.44955" y2="-53.6201" gradientUnits="userSpaceOnUse">
<stop/>
<stop offset="1" stop-color="white"/>
</linearGradient>
<linearGradient id="paint23_linear_63_23" x1="63.0361" y1="125.642" x2="-6.44955" y2="-53.6201" gradientUnits="userSpaceOnUse">
<stop stop-color="#97C3F9"/>
<stop offset="1" stop-color="#93C1F9"/>
</linearGradient>
<linearGradient id="paint24_linear_63_23" x1="89.1247" y1="115.53" x2="19.6391" y2="-63.7324" gradientUnits="userSpaceOnUse">
<stop/>
<stop offset="1" stop-color="white"/>
</linearGradient>
<linearGradient id="paint25_linear_63_23" x1="89.1247" y1="115.53" x2="19.6391" y2="-63.7324" gradientUnits="userSpaceOnUse">
<stop stop-color="#97C3F9"/>
<stop offset="1" stop-color="#93C1F9"/>
</linearGradient>
<linearGradient id="paint26_linear_63_23" x1="115.213" y1="105.417" x2="45.7276" y2="-73.8451" gradientUnits="userSpaceOnUse">
<stop/>
<stop offset="1" stop-color="white"/>
</linearGradient>
<linearGradient id="paint27_linear_63_23" x1="115.213" y1="105.417" x2="45.7276" y2="-73.8451" gradientUnits="userSpaceOnUse">
<stop stop-color="#97C3F9"/>
<stop offset="1" stop-color="#93C1F9"/>
</linearGradient>
<linearGradient id="paint28_linear_63_23" x1="141.302" y1="95.3045" x2="71.8163" y2="-83.9576" gradientUnits="userSpaceOnUse">
<stop/>
<stop offset="1" stop-color="white"/>
</linearGradient>
<linearGradient id="paint29_linear_63_23" x1="141.302" y1="95.3045" x2="71.8163" y2="-83.9576" gradientUnits="userSpaceOnUse">
<stop stop-color="#97C3F9"/>
<stop offset="1" stop-color="#93C1F9"/>
</linearGradient>
</defs>
</svg>
